<svg width="2048" height="2048" viewBox="0 0 2048 2048" fill="none" xmlns="http://www.w3.org/2000/svg">
<rect width="2048" height="2048" rx="1024" fill="#E7E5E4" style="fill:#E7E5E4;fill:color(display-p3 0.9059 0.8980 0.8941);fill-opacity:1;"/>
<path d="M922 398.741C984.625 362.585 1061.67 362.302 1124.52 397.894L1126 398.741L1514.49 623.036C1577.61 659.477 1616.49 726.823 1616.49 799.705V1248.29C1616.49 1320.61 1578.21 1387.47 1515.96 1424.1L1514.49 1424.96L1126 1649.26C1062.88 1685.7 985.118 1685.7 922 1649.26L533.51 1424.96C470.392 1388.52 431.51 1321.18 431.51 1248.29V799.705C431.51 726.823 470.392 659.477 533.51 623.036L922 398.741Z" stroke="#1C1917" style="stroke:#1C1917;stroke:color(display-p3 0.1098 0.0980 0.0902);stroke-opacity:1;" stroke-width="192"/>
<mask id="path-3-outside-1_8_30" maskUnits="userSpaceOnUse" x="610.725" y="593.029" width="837.176" height="859.096" fill="black">
<rect fill="white" x="610.725" y="593.029" width="837.176" height="859.096"/>
<path d="M1204.05 849.038C1171 813.79 1134.9 791.475 1095.73 782.091C1057.15 772.552 1017.86 773.14 977.874 783.855C937.305 794.726 902.854 814.517 874.52 843.229C846.185 871.941 826.902 906.613 816.67 947.246C806.862 987.144 808.325 1030.85 821.059 1078.38C833.638 1125.32 854.226 1163.91 882.824 1194.14C911.422 1224.36 944.878 1244.91 983.193 1255.76C1022.09 1266.46 1062.11 1266.29 1103.26 1255.27C1132.81 1247.35 1159.24 1234.68 1182.52 1217.26C1205.8 1199.84 1224.53 1179.29 1238.68 1155.62C1253.42 1131.8 1262.87 1105.66 1267.05 1077.21L1249.35 1011.14L1058.1 1062.38L1039 991.098L1318.05 916.325L1356.02 1058.03C1352.05 1098.84 1340.11 1137.76 1320.22 1174.77C1300.9 1211.63 1274.44 1243.87 1240.85 1271.51C1207.68 1298.41 1168.49 1317.92 1123.29 1330.03C1080.4 1341.52 1038.1 1344.78 996.396 1339.81C955.267 1334.68 917.143 1322.22 882.026 1302.43C846.753 1282.07 816.246 1255.15 790.504 1221.67C764.607 1187.61 745.524 1147.69 733.256 1101.9C721.144 1056.7 717.864 1013.16 723.418 971.301C728.817 928.857 741.699 889.999 762.063 854.726C782.428 819.454 809.137 789.314 842.191 764.307C875.825 739.144 914.085 720.817 956.972 709.326C995.803 698.921 1034.6 695.358 1073.37 698.635C1112.14 701.913 1148.7 711.995 1183.04 728.882C1217.38 745.77 1247.11 769.793 1272.23 800.953L1204.05 849.038Z"/>
</mask>
<path d="M1204.05 849.038C1171 813.79 1134.9 791.475 1095.73 782.091C1057.15 772.552 1017.86 773.14 977.874 783.855C937.305 794.726 902.854 814.517 874.52 843.229C846.185 871.941 826.902 906.613 816.67 947.246C806.862 987.144 808.325 1030.85 821.059 1078.38C833.638 1125.32 854.226 1163.91 882.824 1194.14C911.422 1224.36 944.878 1244.91 983.193 1255.76C1022.09 1266.46 1062.11 1266.29 1103.26 1255.27C1132.81 1247.35 1159.24 1234.68 1182.52 1217.26C1205.8 1199.84 1224.53 1179.29 1238.68 1155.62C1253.42 1131.8 1262.87 1105.66 1267.05 1077.21L1249.35 1011.14L1058.1 1062.38L1039 991.098L1318.05 916.325L1356.02 1058.03C1352.05 1098.84 1340.11 1137.76 1320.22 1174.77C1300.9 1211.63 1274.44 1243.87 1240.85 1271.51C1207.68 1298.41 1168.49 1317.92 1123.29 1330.03C1080.4 1341.52 1038.1 1344.78 996.396 1339.81C955.267 1334.68 917.143 1322.22 882.026 1302.43C846.753 1282.07 816.246 1255.15 790.504 1221.67C764.607 1187.61 745.524 1147.69 733.256 1101.9C721.144 1056.7 717.864 1013.16 723.418 971.301C728.817 928.857 741.699 889.999 762.063 854.726C782.428 819.454 809.137 789.314 842.191 764.307C875.825 739.144 914.085 720.817 956.972 709.326C995.803 698.921 1034.6 695.358 1073.37 698.635C1112.14 701.913 1148.7 711.995 1183.04 728.882C1217.38 745.77 1247.11 769.793 1272.23 800.953L1204.05 849.038Z" fill="#1C1917" style="fill:#1C1917;fill:color(display-p3 0.1098 0.0980 0.0902);fill-opacity:1;"/>
<path d="M1204.05 849.038L1180.71 870.925C1191.62 882.568 1209.45 884.387 1222.49 875.188L1204.05 849.038ZM1095.73 782.091L1088.05 813.156C1088.13 813.174 1088.2 813.192 1088.28 813.21L1095.73 782.091ZM874.52 843.229L897.296 865.706L897.296 865.706L874.52 843.229ZM816.67 947.246L785.639 939.431C785.624 939.49 785.609 939.548 785.595 939.607L816.67 947.246ZM882.824 1194.14L859.579 1216.13L859.579 1216.13L882.824 1194.14ZM983.193 1255.76L974.472 1286.55C974.55 1286.57 974.628 1286.59 974.707 1286.61L983.193 1255.76ZM1182.52 1217.26L1163.35 1191.63L1163.35 1191.63L1182.52 1217.26ZM1238.68 1155.62L1211.47 1138.79C1211.38 1138.92 1211.3 1139.06 1211.22 1139.2L1238.68 1155.62ZM1267.05 1077.21L1298.71 1081.86C1299.35 1077.54 1299.09 1073.14 1297.96 1068.92L1267.05 1077.21ZM1249.35 1011.14L1280.26 1002.85C1275.68 985.784 1258.14 975.653 1241.07 980.227L1249.35 1011.14ZM1058.1 1062.38L1027.19 1070.67C1031.76 1087.74 1049.31 1097.87 1066.38 1093.29L1058.1 1062.38ZM1039 991.098L1030.71 960.188C1013.64 964.762 1003.51 982.309 1008.09 999.38L1039 991.098ZM1318.05 916.325L1348.96 908.043C1344.39 890.972 1326.84 880.841 1309.77 885.415L1318.05 916.325ZM1356.02 1058.03L1387.87 1061.12C1388.24 1057.31 1387.92 1053.45 1386.93 1049.74L1356.02 1058.03ZM1320.22 1174.77L1292.03 1159.62C1291.98 1159.72 1291.93 1159.82 1291.87 1159.91L1320.22 1174.77ZM1240.85 1271.51L1261.01 1296.36C1261.06 1296.32 1261.12 1296.27 1261.18 1296.22L1240.85 1271.51ZM996.396 1339.81L992.435 1371.56C992.492 1371.57 992.549 1371.57 992.606 1371.58L996.396 1339.81ZM882.026 1302.43L866.026 1330.15C866.123 1330.2 866.221 1330.26 866.319 1330.31L882.026 1302.43ZM790.504 1221.67L765.032 1241.04C765.067 1241.08 765.101 1241.13 765.136 1241.17L790.504 1221.67ZM723.418 971.301L755.14 975.509C755.148 975.452 755.155 975.395 755.163 975.338L723.418 971.301ZM762.063 854.726L734.351 838.726L734.351 838.726L762.063 854.726ZM842.191 764.307L823.022 738.684C822.976 738.718 822.93 738.753 822.885 738.787L842.191 764.307ZM1073.37 698.635L1076.07 666.749L1076.07 666.749L1073.37 698.635ZM1183.04 728.882L1197.16 700.167L1197.16 700.167L1183.04 728.882ZM1272.23 800.953L1290.67 827.104C1297.9 822.007 1302.7 814.146 1303.92 805.388C1305.15 796.629 1302.69 787.754 1297.14 780.869L1272.23 800.953ZM1204.05 849.038L1227.4 827.15C1190.93 788.263 1149.56 762.083 1103.19 750.972L1095.73 782.091L1088.28 813.21C1120.23 820.866 1151.07 839.318 1180.71 870.925L1204.05 849.038ZM1095.73 782.091L1103.41 751.026C1059.36 740.135 1014.58 740.892 969.592 752.946L977.874 783.855L986.157 814.765C1021.15 805.389 1054.94 804.969 1088.05 813.156L1095.73 782.091ZM977.874 783.855L969.592 752.946C923.764 765.225 884.242 787.82 851.743 820.752L874.52 843.229L897.296 865.706C921.466 841.214 950.846 824.226 986.157 814.765L977.874 783.855ZM874.52 843.229L851.743 820.752C819.239 853.689 797.209 893.486 785.639 939.431L816.67 947.246L847.701 955.06C856.595 919.739 873.131 890.193 897.296 865.706L874.52 843.229ZM816.67 947.246L785.595 939.607C774.268 985.684 776.295 1034.95 790.149 1086.66L821.059 1078.38L851.969 1070.1C840.355 1026.75 839.456 988.603 847.745 954.885L816.67 947.246ZM821.059 1078.38L790.149 1086.66C803.872 1137.87 826.756 1181.44 859.579 1216.13L882.824 1194.14L906.07 1172.14C881.695 1146.38 863.403 1112.77 851.969 1070.1L821.059 1078.38ZM882.824 1194.14L859.579 1216.13C891.951 1250.35 930.357 1274.05 974.472 1286.55L983.193 1255.76L991.914 1224.97C959.4 1215.76 930.893 1198.38 906.07 1172.14L882.824 1194.14ZM983.193 1255.76L974.707 1286.61C1019.4 1298.91 1065.22 1298.59 1111.54 1286.18L1103.26 1255.27L1094.97 1224.36C1059 1234 1024.78 1234.01 991.68 1224.9L983.193 1255.76ZM1103.26 1255.27L1111.54 1286.18C1144.82 1277.26 1174.98 1262.86 1201.69 1242.88L1182.52 1217.26L1163.35 1191.63C1143.49 1206.49 1120.81 1217.44 1094.97 1224.36L1103.26 1255.27ZM1182.52 1217.26L1201.69 1242.88C1228.13 1223.1 1249.73 1199.49 1266.14 1172.05L1238.68 1155.62L1211.22 1139.2C1199.32 1159.1 1183.48 1176.57 1163.35 1191.63L1182.52 1217.26ZM1238.68 1155.62L1265.9 1172.45C1282.99 1144.81 1293.92 1114.51 1298.71 1081.86L1267.05 1077.21L1235.39 1072.56C1231.83 1096.8 1223.84 1118.78 1211.47 1138.79L1238.68 1155.62ZM1267.05 1077.21L1297.96 1068.92L1280.26 1002.85L1249.35 1011.14L1218.44 1019.42L1236.14 1085.49L1267.05 1077.21ZM1249.35 1011.14L1241.07 980.227L1049.81 1031.47L1058.1 1062.38L1066.38 1093.29L1257.63 1042.05L1249.35 1011.14ZM1058.1 1062.38L1089.01 1054.1L1069.9 982.816L1039 991.098L1008.09 999.38L1027.19 1070.67L1058.1 1062.38ZM1039 991.098L1047.28 1022.01L1326.33 947.235L1318.05 916.325L1309.77 885.415L1030.71 960.188L1039 991.098ZM1318.05 916.325L1287.14 924.607L1325.11 1066.31L1356.02 1058.03L1386.93 1049.74L1348.96 908.043L1318.05 916.325ZM1356.02 1058.03L1324.17 1054.93C1320.62 1091.42 1309.97 1126.25 1292.03 1159.62L1320.22 1174.77L1348.4 1189.92C1370.26 1149.27 1383.48 1106.27 1387.87 1061.12L1356.02 1058.03ZM1320.22 1174.77L1291.87 1159.91C1274.63 1192.81 1250.96 1221.75 1220.52 1246.8L1240.85 1271.51L1261.18 1296.22C1297.92 1265.99 1327.16 1230.44 1348.56 1189.63L1320.22 1174.77ZM1240.85 1271.51L1220.69 1246.66C1191.34 1270.47 1156.29 1288.06 1115.01 1299.12L1123.29 1330.03L1131.57 1360.94C1180.7 1347.78 1224.03 1326.35 1261.01 1296.36L1240.85 1271.51ZM1123.29 1330.03L1115.01 1299.12C1075.83 1309.62 1037.62 1312.5 1000.19 1308.03L996.396 1339.81L992.606 1371.58C1038.58 1377.06 1084.98 1373.42 1131.57 1360.94L1123.29 1330.03ZM996.396 1339.81L1000.36 1308.05C963.238 1303.42 929.121 1292.24 897.734 1274.55L882.026 1302.43L866.319 1330.31C905.166 1352.2 947.295 1365.93 992.435 1371.56L996.396 1339.81ZM882.026 1302.43L898.026 1274.72C866.517 1256.53 839.155 1232.44 815.872 1202.16L790.504 1221.67L765.136 1241.17C793.337 1277.85 826.989 1307.61 866.026 1330.15L882.026 1302.43ZM790.504 1221.67L815.977 1202.3C792.852 1171.89 775.475 1135.83 764.166 1093.62L733.256 1101.9L702.347 1110.19C715.574 1159.55 736.362 1203.33 765.032 1241.04L790.504 1221.67ZM733.256 1101.9L764.166 1093.62C753.025 1052.05 750.197 1012.77 755.14 975.509L723.418 971.301L691.696 967.092C685.531 1013.56 689.262 1061.35 702.347 1110.19L733.256 1101.9ZM723.418 971.301L755.163 975.338C760.053 936.894 771.643 902.134 789.776 870.726L762.063 854.726L734.351 838.726C711.755 877.863 697.582 920.82 691.674 967.263L723.418 971.301ZM762.063 854.726L789.776 870.726C807.965 839.223 831.792 812.3 861.498 789.826L842.191 764.307L822.885 738.787C786.482 766.327 756.892 799.684 734.351 838.726L762.063 854.726ZM842.191 764.307L861.361 789.93C891.551 767.343 926.073 750.734 965.255 740.235L956.972 709.326L948.69 678.416C902.098 690.9 860.099 710.946 823.022 738.684L842.191 764.307ZM956.972 709.326L965.255 740.235C1000.63 730.757 1035.72 727.566 1070.68 730.521L1073.37 698.635L1076.07 666.749C1033.49 663.149 990.975 667.086 948.69 678.416L956.972 709.326ZM1073.37 698.635L1070.68 730.521C1105.54 733.469 1138.21 742.5 1168.92 757.598L1183.04 728.882L1197.16 700.167C1159.18 681.49 1118.74 670.356 1076.07 666.749L1073.37 698.635ZM1183.04 728.882L1168.92 757.598C1198.88 772.334 1224.98 793.336 1247.32 821.037L1272.23 800.953L1297.14 780.869C1269.23 746.251 1235.87 719.205 1197.16 700.167L1183.04 728.882ZM1272.23 800.953L1253.79 774.803L1185.61 822.887L1204.05 849.038L1222.49 875.188L1290.67 827.104L1272.23 800.953Z" fill="#1C1917" style="fill:#1C1917;fill:color(display-p3 0.1098 0.0980 0.0902);fill-opacity:1;" mask="url(#path-3-outside-1_8_30)"/>
</svg>
