<svg width="2048" height="2048" viewBox="0 0 2048 2048" fill="none" xmlns="http://www.w3.org/2000/svg">
<path d="M922 398.741C984.625 362.585 1061.67 362.302 1124.52 397.894L1126 398.741L1514.49 623.036C1577.61 659.477 1616.49 726.823 1616.49 799.705V1248.29C1616.49 1320.61 1578.21 1387.47 1515.96 1424.1L1514.49 1424.96L1126 1649.26C1063.38 1685.42 986.332 1685.7 923.482 1650.11L922 1649.26L533.51 1424.96C470.392 1388.52 431.51 1321.18 431.51 1248.29V799.705C431.51 727.392 469.787 660.529 532.035 623.896L533.51 623.036L922 398.741Z" stroke="#E7E5E4" style="stroke:#E7E5E4;stroke:color(display-p3 0.9059 0.8980 0.8941);stroke-opacity:1;" stroke-width="192"/>
<path d="M1204.05 849.038C1171 813.79 1134.9 791.475 1095.73 782.091C1057.15 772.552 1017.86 773.14 977.874 783.855C937.305 794.726 902.854 814.517 874.52 843.229C846.185 871.941 826.902 906.613 816.67 947.246C806.862 987.144 808.325 1030.85 821.059 1078.38C833.638 1125.32 854.226 1163.91 882.824 1194.14C911.422 1224.36 944.878 1244.91 983.193 1255.76C1022.09 1266.46 1062.11 1266.29 1103.26 1255.27C1132.81 1247.35 1159.24 1234.68 1182.52 1217.26C1205.8 1199.84 1224.53 1179.29 1238.68 1155.62C1253.42 1131.8 1262.87 1105.66 1267.05 1077.21L1249.35 1011.14L1058.1 1062.38L1039 991.098L1318.05 916.325L1356.02 1058.03C1352.05 1098.84 1340.11 1137.76 1320.22 1174.77C1300.9 1211.63 1274.44 1243.87 1240.85 1271.51C1207.68 1298.41 1168.49 1317.92 1123.29 1330.03C1080.4 1341.52 1038.1 1344.78 996.396 1339.81C955.267 1334.68 917.143 1322.22 882.026 1302.43C846.753 1282.07 816.246 1255.15 790.504 1221.67C764.607 1187.61 745.524 1147.69 733.256 1101.9C721.144 1056.7 717.864 1013.16 723.418 971.301C728.817 928.857 741.699 889.999 762.063 854.726C782.428 819.454 809.137 789.314 842.191 764.307C875.825 739.144 914.085 720.817 956.972 709.326C995.803 698.921 1034.6 695.358 1073.37 698.635C1112.14 701.913 1148.7 711.995 1183.04 728.882C1217.38 745.77 1247.11 769.793 1272.23 800.953L1204.05 849.038Z" fill="#E7E5E4" style="fill:#E7E5E4;fill:color(display-p3 0.9059 0.8980 0.8941);fill-opacity:1;"/>
<path d="M1204.05 849.038L1186.54 865.453C1194.73 874.186 1208.1 875.549 1217.88 868.65L1204.05 849.038ZM1095.73 782.091L1089.97 805.39C1090.03 805.403 1090.09 805.417 1090.14 805.43L1095.73 782.091ZM874.52 843.229L891.602 860.087L891.602 860.087L874.52 843.229ZM816.67 947.246L793.396 941.385C793.385 941.429 793.375 941.473 793.364 941.516L816.67 947.246ZM882.824 1194.14L865.39 1210.63L865.39 1210.63L882.824 1194.14ZM983.193 1255.76L976.652 1278.85C976.711 1278.87 976.769 1278.88 976.828 1278.9L983.193 1255.76ZM1182.52 1217.26L1168.14 1198.04L1168.14 1198.04L1182.52 1217.26ZM1238.68 1155.62L1218.27 1143C1218.21 1143.1 1218.14 1143.2 1218.08 1143.3L1238.68 1155.62ZM1267.05 1077.21L1290.8 1080.69C1291.27 1077.46 1291.08 1074.16 1290.23 1070.99L1267.05 1077.21ZM1249.35 1011.14L1272.53 1004.93C1269.1 992.122 1255.94 984.524 1243.14 987.955L1249.35 1011.14ZM1058.1 1062.38L1034.91 1068.59C1038.34 1081.4 1051.5 1089 1064.31 1085.57L1058.1 1062.38ZM1039 991.098L1032.78 967.916C1019.98 971.346 1012.38 984.506 1015.81 997.309L1039 991.098ZM1318.05 916.325L1341.23 910.113C1337.8 897.31 1324.64 889.712 1311.84 893.143L1318.05 916.325ZM1356.02 1058.03L1379.91 1060.35C1380.19 1057.49 1379.95 1054.59 1379.2 1051.81L1356.02 1058.03ZM1320.22 1174.77L1299.08 1163.41C1299.04 1163.48 1299 1163.55 1298.96 1163.63L1320.22 1174.77ZM1240.85 1271.51L1255.97 1290.15C1256.01 1290.11 1256.05 1290.08 1256.1 1290.04L1240.85 1271.51ZM996.396 1339.81L993.425 1363.62C993.468 1363.63 993.511 1363.63 993.554 1363.64L996.396 1339.81ZM882.026 1302.43L870.026 1323.22C870.099 1323.26 870.172 1323.3 870.246 1323.34L882.026 1302.43ZM790.504 1221.67L771.4 1236.2C771.426 1236.23 771.452 1236.26 771.478 1236.3L790.504 1221.67ZM723.418 971.301L747.21 974.457C747.215 974.414 747.221 974.372 747.226 974.329L723.418 971.301ZM762.063 854.726L741.279 842.726L741.279 842.726L762.063 854.726ZM842.191 764.307L827.814 745.089C827.78 745.115 827.746 745.141 827.711 745.167L842.191 764.307ZM1073.37 698.635L1075.39 674.72L1075.39 674.72L1073.37 698.635ZM1183.04 728.882L1193.63 707.345L1193.63 707.345L1183.04 728.882ZM1272.23 800.953L1286.06 820.566C1291.48 816.743 1295.08 810.848 1296 804.279C1296.92 797.71 1295.08 791.054 1290.91 785.89L1272.23 800.953ZM1204.05 849.038L1221.56 832.622C1185.95 794.645 1145.9 769.431 1101.33 758.752L1095.73 782.091L1090.14 805.43C1123.9 813.518 1156.05 832.936 1186.54 865.453L1204.05 849.038ZM1095.73 782.091L1101.49 758.793C1058.81 748.239 1015.4 748.954 971.663 760.673L977.874 783.855L984.086 807.038C1020.33 797.327 1055.49 796.865 1089.97 805.39L1095.73 782.091ZM977.874 783.855L971.663 760.673C927.15 772.6 888.895 794.494 857.437 826.371L874.52 843.229L891.602 860.087C916.813 834.54 947.461 816.851 984.086 807.038L977.874 783.855ZM874.52 843.229L857.437 826.371C825.975 858.252 804.632 896.768 793.396 941.385L816.67 947.246L839.943 953.106C849.172 916.458 866.395 885.63 891.602 860.087L874.52 843.229ZM816.67 947.246L793.364 941.516C782.417 986.049 784.302 1033.93 797.877 1084.59L821.059 1078.38L844.241 1072.17C832.348 1027.78 831.307 988.238 839.976 952.975L816.67 947.246ZM821.059 1078.38L797.877 1084.59C811.313 1134.74 833.624 1177.05 865.39 1210.63L882.824 1194.14L900.258 1177.64C874.828 1150.76 855.962 1115.91 844.241 1072.17L821.059 1078.38ZM882.824 1194.14L865.39 1210.63C896.819 1243.85 933.987 1266.76 976.652 1278.85L983.193 1255.76L989.734 1232.67C955.77 1223.05 926.025 1204.88 900.258 1177.64L882.824 1194.14ZM983.193 1255.76L976.828 1278.9C1020.07 1290.79 1064.44 1290.51 1109.47 1278.45L1103.26 1255.27L1097.05 1232.08C1059.78 1242.07 1024.1 1242.12 989.558 1232.62L983.193 1255.76ZM1103.26 1255.27L1109.47 1278.45C1141.82 1269.78 1171.04 1255.82 1196.9 1236.47L1182.52 1217.26L1168.14 1198.04C1147.43 1213.54 1123.81 1224.91 1097.05 1232.08L1103.26 1255.27ZM1182.52 1217.26L1196.9 1236.47C1222.55 1217.28 1243.43 1194.44 1259.28 1167.94L1238.68 1155.62L1218.08 1143.3C1205.62 1164.15 1189.06 1182.39 1168.14 1198.04L1182.52 1217.26ZM1238.68 1155.62L1259.09 1168.25C1275.6 1141.56 1286.16 1112.3 1290.8 1080.69L1267.05 1077.21L1243.31 1073.72C1239.59 1099.02 1231.24 1122.03 1218.27 1143L1238.68 1155.62ZM1267.05 1077.21L1290.23 1070.99L1272.53 1004.93L1249.35 1011.14L1226.17 1017.35L1243.87 1083.42L1267.05 1077.21ZM1249.35 1011.14L1243.14 987.955L1051.88 1039.2L1058.1 1062.38L1064.31 1085.57L1255.56 1034.32L1249.35 1011.14ZM1058.1 1062.38L1081.28 1056.17L1062.18 984.886L1039 991.098L1015.81 997.309L1034.91 1068.59L1058.1 1062.38ZM1039 991.098L1045.21 1014.28L1324.26 939.507L1318.05 916.325L1311.84 893.143L1032.78 967.916L1039 991.098ZM1318.05 916.325L1294.87 922.537L1332.84 1064.24L1356.02 1058.03L1379.2 1051.81L1341.23 910.113L1318.05 916.325ZM1356.02 1058.03L1332.13 1055.7C1328.48 1093.28 1317.51 1129.13 1299.08 1163.41L1320.22 1174.77L1341.35 1186.14C1362.72 1146.39 1375.62 1104.41 1379.91 1060.35L1356.02 1058.03ZM1320.22 1174.77L1298.96 1163.63C1281.2 1197.52 1256.83 1227.28 1225.6 1252.98L1240.85 1271.51L1256.1 1290.04C1292.05 1260.46 1320.6 1225.74 1341.47 1185.91L1320.22 1174.77ZM1240.85 1271.51L1225.73 1252.87C1195.42 1277.45 1159.34 1295.52 1117.08 1306.85L1123.29 1330.03L1129.5 1353.21C1177.65 1340.31 1219.94 1319.37 1255.97 1290.15L1240.85 1271.51ZM1123.29 1330.03L1117.08 1306.85C1076.97 1317.59 1037.74 1320.57 999.238 1315.97L996.396 1339.81L993.554 1363.64C1038.46 1368.99 1083.84 1365.45 1129.5 1353.21L1123.29 1330.03ZM996.396 1339.81L999.366 1315.99C961.245 1311.24 926.127 1299.73 893.807 1281.52L882.026 1302.43L870.246 1323.34C908.16 1344.7 949.288 1358.12 993.425 1363.62L996.396 1339.81ZM882.026 1302.43L894.026 1281.65C861.576 1262.91 833.428 1238.12 809.53 1207.04L790.504 1221.67L771.478 1236.3C799.064 1272.17 831.93 1301.22 870.026 1323.22L882.026 1302.43ZM790.504 1221.67L809.608 1207.14C785.791 1175.82 767.987 1138.79 756.439 1095.69L733.256 1101.9L710.074 1108.12C723.062 1156.59 743.423 1199.4 771.4 1236.2L790.504 1221.67ZM733.256 1101.9L756.439 1095.69C745.055 1053.21 742.114 1012.87 747.21 974.457L723.418 971.301L699.627 968.144C693.614 1013.46 697.232 1060.19 710.074 1108.12L733.256 1101.9ZM723.418 971.301L747.226 974.329C752.244 934.885 764.157 899.101 782.848 866.726L762.063 854.726L741.279 842.726C719.241 880.897 705.39 922.829 699.61 968.272L723.418 971.301ZM762.063 854.726L782.848 866.726C801.581 834.281 826.129 806.554 856.672 783.446L842.191 764.307L827.711 745.167C792.146 772.074 763.276 804.627 741.279 842.726L762.063 854.726ZM842.191 764.307L856.568 783.524C887.62 760.293 923.076 743.255 963.184 732.508L956.972 709.326L950.761 686.144C905.095 698.38 864.03 717.995 827.814 745.089L842.191 764.307ZM956.972 709.326L963.184 732.508C999.423 722.798 1035.44 719.514 1071.35 722.55L1073.37 698.635L1075.39 674.72C1033.77 671.201 992.182 675.045 950.761 686.144L956.972 709.326ZM1073.37 698.635L1071.35 722.55C1107.19 725.58 1140.83 734.874 1172.45 750.419L1183.04 728.882L1193.63 707.345C1156.56 689.116 1117.09 678.245 1075.39 674.72L1073.37 698.635ZM1183.04 728.882L1172.45 750.419C1203.51 765.693 1230.52 787.45 1253.55 816.016L1272.23 800.953L1290.91 785.89C1263.7 752.137 1231.25 725.846 1193.63 707.345L1183.04 728.882ZM1272.23 800.953L1258.4 781.34L1190.22 829.425L1204.05 849.038L1217.88 868.65L1286.06 820.566L1272.23 800.953Z" fill="#E7E5E4" style="fill:#E7E5E4;fill:color(display-p3 0.9059 0.8980 0.8941);fill-opacity:1;"/>
</svg>
